<svg width="24" height="24" viewBox="0 0 24 24" fill="none" xmlns="http://www.w3.org/2000/svg">
<path fill-rule="evenodd" clip-rule="evenodd" d="M11.7411 3.60083C12.0902 3.9546 12.0864 4.52441 11.7327 4.87352L6.69374 9.8461H10.5935C12.5156 9.84609 14.0389 9.84608 15.2435 9.98937C16.4806 10.1365 17.4991 10.4456 18.3481 11.1487C18.6209 11.3747 18.8719 11.6257 19.0979 11.8985C19.801 12.7475 20.1101 13.766 20.2572 15.003C20.4005 16.2077 20.4005 17.731 20.4005 19.6531V19.7121C20.4005 20.2092 19.9976 20.6121 19.5005 20.6121C19.0035 20.6121 18.6006 20.2092 18.6006 19.7121C18.6006 17.7178 18.5991 16.3016 18.4699 15.2156C18.3431 14.1498 18.1043 13.5207 17.7117 13.0466C17.5575 12.8604 17.3862 12.6891 17.2 12.5349C16.7259 12.1423 16.0968 11.9035 15.0309 11.7767C13.945 11.6475 12.5288 11.646 10.5345 11.646H6.69374L11.1327 16.0265C11.4864 16.3756 11.4902 16.9454 11.1411 17.2992C10.792 17.653 10.2222 17.6567 9.86841 17.3076L3.86841 11.3866C3.69705 11.2175 3.60059 10.9868 3.60059 10.7461C3.60059 10.5053 3.69705 10.2746 3.86841 10.1055L10.4684 3.59239C10.8222 3.24328 11.392 3.24705 11.7411 3.60083Z" fill="#007AFF"/>
</svg>
