<svg width="15" height="16" viewBox="0 0 15 16" fill="none" xmlns="http://www.w3.org/2000/svg">
<path d="M5.83301 10.4619L5.83301 8.00038" stroke="white" stroke-linecap="round"/>
<path d="M9.16699 10.4619L9.16699 8.00038" stroke="white" stroke-linecap="round"/>
<path d="M0 3.89746H15C14.5353 3.89746 14.303 3.89746 14.1098 3.93589C13.3164 4.0937 12.6962 4.7139 12.5384 5.50728C12.5 5.70048 12.5 5.93281 12.5 6.39746V10.5641C12.5 12.4497 12.5 13.3926 11.9142 13.9783C11.3284 14.5641 10.3856 14.5641 8.5 14.5641H6.5C4.61438 14.5641 3.67157 14.5641 3.08579 13.9783C2.5 13.3926 2.5 12.4497 2.5 10.5641V6.39746C2.5 5.93281 2.5 5.70048 2.46157 5.50728C2.30376 4.7139 1.68356 4.0937 0.890181 3.93589C0.696983 3.89746 0.464655 3.89746 0 3.89746Z" stroke="white" stroke-linecap="round"/>
<path d="M5.89033 0.919309C5.98528 0.832075 6.19453 0.754991 6.4856 0.700013C6.77667 0.645034 7.13331 0.615234 7.5002 0.615234C7.86709 0.615234 8.22373 0.645034 8.51481 0.700012C8.80588 0.754991 9.01512 0.832074 9.11008 0.919309" stroke="white" stroke-linecap="round"/>
</svg>
