<svg width="40" height="40" viewBox="0 0 40 40" fill="none" xmlns="http://www.w3.org/2000/svg">
<path d="M0 8C0 3.58172 3.58172 0 8 0H32C36.4183 0 40 3.58172 40 8V32C40 36.4183 36.4183 40 32 40H8C3.58172 40 0 36.4183 0 32V8Z" fill="url(#paint0_linear_1304_4677)"/>
<path d="M17.833 22.4619L17.833 20.0004" stroke="white" stroke-linecap="round"/>
<path d="M21.167 22.4619L21.167 20.0004" stroke="white" stroke-linecap="round"/>
<path d="M12 15.8975H27C26.5353 15.8975 26.303 15.8975 26.1098 15.9359C25.3164 16.0937 24.6962 16.7139 24.5384 17.5073C24.5 17.7005 24.5 17.9328 24.5 18.3975V22.5641C24.5 24.4497 24.5 25.3926 23.9142 25.9783C23.3284 26.5641 22.3856 26.5641 20.5 26.5641H18.5C16.6144 26.5641 15.6716 26.5641 15.0858 25.9783C14.5 25.3926 14.5 24.4497 14.5 22.5641V18.3975C14.5 17.9328 14.5 17.7005 14.4616 17.5073C14.3038 16.7139 13.6836 16.0937 12.8902 15.9359C12.697 15.8975 12.4647 15.8975 12 15.8975Z" stroke="white" stroke-linecap="round"/>
<path d="M17.8903 12.9193C17.9853 12.8321 18.1945 12.755 18.4856 12.7C18.7767 12.645 19.1333 12.6152 19.5002 12.6152C19.8671 12.6152 20.2237 12.645 20.5148 12.7C20.8059 12.755 21.0151 12.8321 21.1101 12.9193" stroke="white" stroke-linecap="round"/>
<defs>
<linearGradient id="paint0_linear_1304_4677" x1="0" y1="20" x2="40" y2="20" gradientUnits="userSpaceOnUse">
<stop stop-color="#DC8234"/>
<stop offset="0.168269" stop-color="#D65A30"/>
<stop offset="0.649038" stop-color="#D03635"/>
<stop offset="1" stop-color="#BA2E32"/>
</linearGradient>
</defs>
</svg>
