<svg width="40" height="40" viewBox="0 0 40 40" fill="none" xmlns="http://www.w3.org/2000/svg">
<path d="M0 8C0 3.58172 3.58172 0 8 0H32C36.4183 0 40 3.58172 40 8V32C40 36.4183 36.4183 40 32 40H8C3.58172 40 0 36.4183 0 32V8Z" fill="#007AFF"/>
<path d="M0 8C0 3.58172 3.58172 0 8 0H32C36.4183 0 40 3.58172 40 8V32C40 36.4183 36.4183 40 32 40H8C3.58172 40 0 36.4183 0 32V8Z" fill="url(#paint0_linear_1087_16471)" fill-opacity="0.2"/>
<path d="M25 13.333H15C14.0792 13.333 13.3117 14.0913 13.5392 14.983C13.7815 15.9279 14.2277 16.8082 14.8464 17.5623C15.4652 18.3164 16.2415 18.9259 17.1208 19.348C17.8067 19.6763 18.3333 20.3213 18.3333 21.0813V26.1513C18.3334 26.2933 18.3698 26.433 18.439 26.5569C18.5082 26.6809 18.6079 26.7852 18.7287 26.8598C18.8495 26.9345 18.9873 26.977 19.1292 26.9834C19.271 26.9898 19.4122 26.9598 19.5392 26.8963L21.2058 26.063C21.3442 25.9938 21.4607 25.8875 21.5421 25.7559C21.6234 25.6244 21.6666 25.4727 21.6667 25.318V21.0813C21.6667 20.3213 22.1933 19.6763 22.8783 19.348C23.758 18.9261 24.5347 18.3167 25.1537 17.5626C25.7728 16.8085 26.2192 15.928 26.4617 14.983C26.6875 14.0913 25.9192 13.333 25 13.333Z" stroke="black" stroke-width="1.5"/>
<path d="M25 13.333H15C14.0792 13.333 13.3117 14.0913 13.5392 14.983C13.7815 15.9279 14.2277 16.8082 14.8464 17.5623C15.4652 18.3164 16.2415 18.9259 17.1208 19.348C17.8067 19.6763 18.3333 20.3213 18.3333 21.0813V26.1513C18.3334 26.2933 18.3698 26.433 18.439 26.5569C18.5082 26.6809 18.6079 26.7852 18.7287 26.8598C18.8495 26.9345 18.9873 26.977 19.1292 26.9834C19.271 26.9898 19.4122 26.9598 19.5392 26.8963L21.2058 26.063C21.3442 25.9938 21.4607 25.8875 21.5421 25.7559C21.6234 25.6244 21.6666 25.4727 21.6667 25.318V21.0813C21.6667 20.3213 22.1933 19.6763 22.8783 19.348C23.758 18.9261 24.5347 18.3167 25.1537 17.5626C25.7728 16.8085 26.2192 15.928 26.4617 14.983C26.6875 14.0913 25.9192 13.333 25 13.333Z" stroke="white" stroke-width="1.5"/>
<defs>
<linearGradient id="paint0_linear_1087_16471" x1="20" y1="0" x2="20" y2="40" gradientUnits="userSpaceOnUse">
<stop offset="0.105769" stop-color="white"/>
<stop offset="0.783654"/>
</linearGradient>
</defs>
</svg>
