<svg width="20" height="20" viewBox="0 0 20 20" fill="none" xmlns="http://www.w3.org/2000/svg">
<path d="M15 3.33301H5.00001C4.07918 3.33301 3.31168 4.09134 3.53918 4.98301C3.78148 5.92787 4.22766 6.80825 4.84641 7.56232C5.46516 8.3164 6.24148 8.92589 7.12085 9.34801C7.80668 9.67634 8.33335 10.3213 8.33335 11.0813V16.1513C8.33342 16.2933 8.36978 16.433 8.43897 16.5569C8.50816 16.6809 8.60788 16.7852 8.72868 16.8598C8.84947 16.9345 8.98734 16.977 9.12919 16.9834C9.27103 16.9898 9.41216 16.9598 9.53918 16.8963L11.2058 16.063C11.3442 15.9938 11.4607 15.8875 11.5421 15.7559C11.6234 15.6244 11.6666 15.4727 11.6667 15.318V11.0813C11.6667 10.3213 12.1933 9.67634 12.8783 9.34801C13.758 8.92608 14.5347 8.31667 15.1537 7.56259C15.7728 6.8085 16.2192 5.92803 16.4617 4.98301C16.6875 4.09134 15.9192 3.33301 15 3.33301Z" stroke="black" stroke-width="1.5"/>
<path d="M15 3.33301H5.00001C4.07918 3.33301 3.31168 4.09134 3.53918 4.98301C3.78148 5.92787 4.22766 6.80825 4.84641 7.56232C5.46516 8.3164 6.24148 8.92589 7.12085 9.34801C7.80668 9.67634 8.33335 10.3213 8.33335 11.0813V16.1513C8.33342 16.2933 8.36978 16.433 8.43897 16.5569C8.50816 16.6809 8.60788 16.7852 8.72868 16.8598C8.84947 16.9345 8.98734 16.977 9.12919 16.9834C9.27103 16.9898 9.41216 16.9598 9.53918 16.8963L11.2058 16.063C11.3442 15.9938 11.4607 15.8875 11.5421 15.7559C11.6234 15.6244 11.6666 15.4727 11.6667 15.318V11.0813C11.6667 10.3213 12.1933 9.67634 12.8783 9.34801C13.758 8.92608 14.5347 8.31667 15.1537 7.56259C15.7728 6.8085 16.2192 5.92803 16.4617 4.98301C16.6875 4.09134 15.9192 3.33301 15 3.33301Z" stroke="white" stroke-width="1.5"/>
</svg>
