<svg width="16" height="16" viewBox="0 0 16 16" fill="none" xmlns="http://www.w3.org/2000/svg">
<path fill-rule="evenodd" clip-rule="evenodd" d="M9.21304 3.55262C9.79764 3.99827 10.3775 4.50332 10.9371 5.06049L10.9392 5.06257C11.4964 5.6222 12.0014 6.20205 12.4471 6.78665C12.6647 6.38973 12.8441 6.00381 12.9832 5.63615C13.235 4.97079 13.3435 4.39512 13.3292 3.93875C13.315 3.48729 13.1842 3.19222 12.9965 3.00549L12.9942 3.00318C12.8075 2.81553 12.5124 2.68469 12.0609 2.67052C11.6046 2.65619 11.0289 2.76467 10.3635 3.01645C9.99588 3.15557 9.60995 3.33501 9.21304 3.55262ZM8.00009 2.71671C8.64475 2.31907 9.28221 2.00003 9.89164 1.76941C10.6621 1.47786 11.4177 1.31634 12.1028 1.33784C12.7922 1.35949 13.4483 1.57 13.9382 2.06153C14.4297 2.55134 14.6402 3.20745 14.6618 3.89691C14.6833 4.58199 14.5218 5.33758 14.2303 6.10804C13.9997 6.71748 13.6806 7.35493 13.283 7.9996C13.6806 8.64427 13.9997 9.28172 14.2303 9.89115C14.5218 10.6616 14.6833 11.4172 14.6618 12.1023C14.6402 12.7917 14.4297 13.4479 13.9382 13.9377C13.4483 14.4292 12.7922 14.6397 12.1028 14.6614C11.4177 14.6829 10.6621 14.5213 9.89164 14.2298C9.28221 13.9992 8.64475 13.6801 8.00009 13.2825C7.35542 13.6801 6.71797 13.9992 6.10853 14.2298C5.33806 14.5213 4.58248 14.6829 3.8974 14.6614C3.20788 14.6397 2.55171 14.4292 2.06188 13.9375C1.57045 13.4477 1.35997 12.7917 1.33833 12.1023C1.31683 11.4172 1.47835 10.6616 1.7699 9.89115C2.00052 9.28172 2.31956 8.64427 2.7172 7.9996C2.31956 7.35493 2.00052 6.71748 1.7699 6.10804C1.47835 5.33758 1.31683 4.58199 1.33833 3.89691C1.35998 3.20745 1.57049 2.55134 2.06201 2.06153C2.55183 1.57 3.20794 1.35949 3.8974 1.33784C4.58248 1.31634 5.33806 1.47786 6.10853 1.76941C6.71797 2.00003 7.35542 2.31907 8.00009 2.71671ZM3.55311 6.78665C3.3355 6.38973 3.15606 6.00381 3.01694 5.63615C2.76516 4.97079 2.65668 4.39512 2.67101 3.93875C2.68518 3.48729 2.81602 3.19222 3.00367 3.00549L3.00367 3.0055L3.00598 3.00318C3.19271 2.81553 3.48778 2.68469 3.93923 2.67052C4.39561 2.65619 4.97128 2.76467 5.63664 3.01645C6.0043 3.15557 6.39022 3.33501 6.78714 3.55262C6.20253 3.99827 5.62269 4.50332 5.06306 5.06049L5.06098 5.06257C4.50381 5.6222 3.99875 6.20205 3.55311 6.78665ZM3.55311 9.21255C3.3355 9.60947 3.15606 9.99539 3.01694 10.363C2.76516 11.0284 2.65668 11.6041 2.67101 12.0605C2.68518 12.5119 2.81602 12.807 3.00367 12.9937L3.00598 12.996C3.19271 13.1837 3.48778 13.3145 3.93923 13.3287C4.39561 13.343 4.97128 13.2345 5.63664 12.9827C6.0043 12.8436 6.39022 12.6642 6.78714 12.4466C6.20253 12.0009 5.62269 11.4959 5.06306 10.9387L5.06098 10.9366C4.50381 10.377 3.99875 9.79715 3.55311 9.21255ZM9.21304 12.4466C9.60995 12.6642 9.99588 12.8436 10.3635 12.9827C11.0289 13.2345 11.6046 13.343 12.0609 13.3287C12.5124 13.3145 12.8075 13.1837 12.9942 12.996L12.9965 12.9937C13.1842 12.807 13.315 12.5119 13.3292 12.0605C13.3435 11.6041 13.235 11.0284 12.9832 10.363C12.8441 9.99539 12.6647 9.60947 12.4471 9.21255C12.0014 9.79715 11.4964 10.377 10.9392 10.9366L10.9371 10.9387C10.3775 11.4959 9.79764 12.0009 9.21304 12.4466ZM11.6843 7.9996C11.2126 7.33398 10.6466 6.65864 9.99538 6.00437C9.3411 5.35308 8.66573 4.7871 8.00009 4.31542C7.33446 4.78709 6.6591 5.35306 6.00483 6.00434C5.35355 6.65861 4.78758 7.33397 4.31591 7.9996C4.78758 8.66524 5.35357 9.34061 6.00486 9.99489C6.65912 10.6462 7.33447 11.2121 8.00009 11.6838C8.66571 11.2121 9.34107 10.6461 9.99535 9.99486C10.6466 9.34059 11.2126 8.66523 11.6843 7.9996ZM6.66675 7.99967C6.66675 7.2633 7.2637 6.66634 8.00008 6.66634C8.73646 6.66634 9.33342 7.2633 9.33342 7.99967C9.33342 8.73605 8.73646 9.33301 8.00008 9.33301C7.2637 9.33301 6.66675 8.73605 6.66675 7.99967Z" fill="#09090B"/>
</svg>
