<svg width="16" height="16" viewBox="0 0 16 16" fill="none" xmlns="http://www.w3.org/2000/svg">
<path fill-rule="evenodd" clip-rule="evenodd" d="M11.8329 0.0137778C11.9947 -0.00459259 12.1581 -0.00459259 12.3199 0.0137778C12.7609 0.0638286 13.1156 0.270256 13.4338 0.522004C13.7316 0.757609 14.0605 1.08583 14.439 1.46345L14.4983 1.5226C14.8863 1.90958 15.223 2.24537 15.4646 2.54975C15.7224 2.87458 15.9346 3.23824 15.9859 3.6927C16.0047 3.85907 16.0047 4.02705 15.9859 4.19342C15.9346 4.64788 15.7224 5.01154 15.4646 5.33636C15.223 5.64075 14.8863 5.97654 14.4983 6.36353L5.84038 15.0003C5.8194 15.0212 5.79859 15.0421 5.77791 15.0628C5.48135 15.3595 5.21234 15.6286 4.86942 15.7911C4.80476 15.8218 4.73866 15.8492 4.67134 15.8733C4.31431 16.0011 3.93583 16.0005 3.51858 15.9999C3.48949 15.9999 3.46021 15.9998 3.43073 15.9998H3.34025C2.81292 15.9999 2.35494 15.9999 1.98269 15.9572C1.58547 15.9116 1.19298 15.8093 0.84614 15.5377C0.700659 15.4238 0.570014 15.2917 0.457316 15.1447C0.188634 14.794 0.0874475 14.3973 0.0423611 13.9958C0.00010832 13.6195 0.000132364 13.1565 0.000160055 12.6234L0.000161455 12.5822C0.000161455 12.5531 0.000120568 12.5241 7.99313e-05 12.4953C-0.000502127 12.083 -0.00102974 11.7092 0.119582 11.356C0.149824 11.2674 0.185618 11.1809 0.226746 11.0969C0.390773 10.762 0.654335 10.4998 0.945062 10.2106C0.965348 10.1904 0.985767 10.1701 1.00629 10.1496L9.71377 1.46344C10.0923 1.08582 10.4213 0.757607 10.719 0.522004C11.0372 0.270256 11.3919 0.0638286 11.8329 0.0137778ZM12.1515 1.5301C12.1016 1.52444 12.0512 1.52444 12.0013 1.5301C11.9507 1.53585 11.8578 1.55866 11.6494 1.72355C11.4283 1.89851 11.1611 2.16341 10.7446 2.57884L10.3205 3.00191L13.0199 5.69466L13.4082 5.30728C13.8347 4.88185 14.1072 4.60829 14.2872 4.38146C14.4572 4.1673 14.4804 4.07173 14.4862 4.02027C14.492 3.96896 14.492 3.91715 14.4862 3.86584C14.4804 3.81438 14.4572 3.71882 14.2872 3.50465C14.1072 3.27783 13.8347 3.00427 13.4082 2.57884C12.9917 2.16341 12.7245 1.89851 12.5034 1.72355C12.295 1.55866 12.2021 1.53585 12.1515 1.5301ZM11.9454 6.76652L9.24602 4.07377L2.06654 11.2357C1.6785 11.6228 1.61652 11.6983 1.5795 11.7739C1.56681 11.7998 1.55577 11.8265 1.54645 11.8538C1.51922 11.9335 1.50961 12.0311 1.50961 12.5822C1.50961 13.1684 1.51075 13.5437 1.54218 13.8237C1.57187 14.088 1.62022 14.1706 1.65061 14.2102C1.68537 14.2556 1.72566 14.2963 1.77053 14.3314C1.80976 14.3622 1.89142 14.411 2.15293 14.441C2.42984 14.4728 2.80115 14.474 3.38104 14.474H3.43073C3.98841 14.474 4.08689 14.4638 4.1675 14.4349C4.18827 14.4275 4.20865 14.4191 4.2286 14.4096C4.30602 14.3729 4.38319 14.3102 4.78013 13.9142L11.9454 6.76652Z" fill="white"/>
</svg>
