<svg width="40" height="40" viewBox="0 0 40 40" fill="none" xmlns="http://www.w3.org/2000/svg">
<rect width="40" height="40" rx="8" fill="#007AFF"/>
<rect width="40" height="40" rx="8" fill="url(#paint0_linear_1304_4674)" fill-opacity="0.2"/>
<path fill-rule="evenodd" clip-rule="evenodd" d="M23.8329 12.0138C23.9947 11.9954 24.1581 11.9954 24.3199 12.0138C24.7609 12.0638 25.1156 12.2703 25.4338 12.522C25.7316 12.7576 26.0605 13.0858 26.439 13.4634L26.4983 13.5226C26.8863 13.9096 27.223 14.2454 27.4646 14.5498C27.7224 14.8746 27.9346 15.2382 27.9859 15.6927C28.0047 15.8591 28.0047 16.0271 27.9859 16.1934C27.9346 16.6479 27.7224 17.0115 27.4646 17.3364C27.223 17.6407 26.8863 17.9765 26.4983 18.3635L17.8404 27.0003C17.8194 27.0212 17.7986 27.0421 17.7779 27.0628C17.4813 27.3595 17.2123 27.6286 16.8694 27.7911C16.8048 27.8218 16.7387 27.8492 16.6713 27.8733C16.3143 28.0011 15.9358 28.0005 15.5186 27.9999C15.4895 27.9999 15.4602 27.9998 15.4307 27.9998H15.3403C14.8129 27.9999 14.3549 27.9999 13.9827 27.9572C13.5855 27.9116 13.193 27.8093 12.8461 27.5377C12.7007 27.4238 12.57 27.2917 12.4573 27.1447C12.1886 26.794 12.0874 26.3973 12.0424 25.9958C12.0001 25.6195 12.0001 25.1565 12.0002 24.6234L12.0002 24.5822C12.0002 24.5531 12.0001 24.5241 12.0001 24.4953C11.9995 24.083 11.999 23.7092 12.1196 23.356C12.1498 23.2674 12.1856 23.1809 12.2267 23.0969C12.3908 22.762 12.6543 22.4998 12.9451 22.2106C12.9653 22.1904 12.9858 22.1701 13.0063 22.1496L21.7138 13.4634C22.0923 13.0858 22.4213 12.7576 22.719 12.522C23.0372 12.2703 23.3919 12.0638 23.8329 12.0138ZM24.1515 13.5301C24.1016 13.5244 24.0512 13.5244 24.0013 13.5301C23.9507 13.5358 23.8578 13.5587 23.6494 13.7236C23.4283 13.8985 23.1611 14.1634 22.7446 14.5788L22.3205 15.0019L25.0199 17.6947L25.4082 17.3073C25.8347 16.8818 26.1072 16.6083 26.2872 16.3815C26.4572 16.1673 26.4804 16.0717 26.4862 16.0203C26.492 15.969 26.492 15.9172 26.4862 15.8658C26.4804 15.8144 26.4572 15.7188 26.2872 15.5047C26.1072 15.2778 25.8347 15.0043 25.4082 14.5788C24.9917 14.1634 24.7245 13.8985 24.5034 13.7236C24.295 13.5587 24.2021 13.5358 24.1515 13.5301ZM23.9454 18.7665L21.246 16.0738L14.0665 23.2357C13.6785 23.6228 13.6165 23.6983 13.5795 23.7739C13.5668 23.7998 13.5558 23.8265 13.5464 23.8538C13.5192 23.9335 13.5096 24.0311 13.5096 24.5822C13.5096 25.1684 13.5108 25.5437 13.5422 25.8237C13.5719 26.088 13.6202 26.1706 13.6506 26.2102C13.6854 26.2556 13.7257 26.2963 13.7705 26.3314C13.8098 26.3622 13.8914 26.411 14.1529 26.441C14.4298 26.4728 14.8011 26.474 15.381 26.474H15.4307C15.9884 26.474 16.0869 26.4638 16.1675 26.4349C16.1883 26.4275 16.2087 26.4191 16.2286 26.4096C16.306 26.3729 16.3832 26.3102 16.7801 25.9142L23.9454 18.7665Z" fill="white"/>
<defs>
<linearGradient id="paint0_linear_1304_4674" x1="20" y1="0" x2="20" y2="40" gradientUnits="userSpaceOnUse">
<stop offset="0.105769" stop-color="white"/>
<stop offset="0.783654"/>
</linearGradient>
</defs>
</svg>
