<svg width="16" height="16" viewBox="0 0 16 16" fill="none" xmlns="http://www.w3.org/2000/svg">
<g clip-path="url(#clip0_1467_12914)">
<path fill-rule="evenodd" clip-rule="evenodd" d="M8.00002 2.00033C4.68631 2.00033 2.00002 4.68662 2.00002 8.00033C2.00002 11.314 4.68631 14.0003 8.00002 14.0003C11.3137 14.0003 14 11.314 14 8.00033C14 4.68662 11.3137 2.00033 8.00002 2.00033ZM0.666687 8.00033C0.666687 3.95024 3.94993 0.666992 8.00002 0.666992C12.0501 0.666992 15.3334 3.95024 15.3334 8.00033C15.3334 12.0504 12.0501 15.3337 8.00002 15.3337C3.94993 15.3337 0.666687 12.0504 0.666687 8.00033ZM8.00002 4.66699C8.36821 4.66699 8.66669 4.96547 8.66669 5.33366V7.33366H10.6667C11.0349 7.33366 11.3334 7.63214 11.3334 8.00033C11.3334 8.36852 11.0349 8.66699 10.6667 8.66699H8.66669V10.667C8.66669 11.0352 8.36821 11.3337 8.00002 11.3337C7.63183 11.3337 7.33335 11.0352 7.33335 10.667V8.66699H5.33335C4.96516 8.66699 4.66669 8.36852 4.66669 8.00033C4.66669 7.63214 4.96516 7.33366 5.33335 7.33366H7.33335V5.33366C7.33335 4.96547 7.63183 4.66699 8.00002 4.66699Z" fill="white"/>
</g>
<defs>
<clipPath id="clip0_1467_12914">
<rect width="16" height="16" fill="white"/>
</clipPath>
</defs>
</svg>
