<svg width="20" height="20" viewBox="0 0 20 20" fill="none" xmlns="http://www.w3.org/2000/svg">
<path fill-rule="evenodd" clip-rule="evenodd" d="M9.16676 3.33368C5.94507 3.33368 3.33337 5.94537 3.33337 9.16707C3.33337 12.3888 5.94507 15.0005 9.16676 15.0005C12.3885 15.0005 15.0002 12.3888 15.0002 9.16707C15.0002 5.94537 12.3885 3.33368 9.16676 3.33368ZM1.66669 9.16707C1.66669 5.02489 5.02458 1.66699 9.16676 1.66699C13.3089 1.66699 16.6668 5.02489 16.6668 9.16707C16.6668 10.9379 16.0531 12.5654 15.0267 13.8485L18.0894 16.9112C18.4148 17.2366 18.4148 17.7643 18.0894 18.0897C17.764 18.4151 17.2363 18.4151 16.9109 18.0897L13.8482 15.027C12.5651 16.0534 10.9376 16.6671 9.16676 16.6671C5.02458 16.6671 1.66669 13.3092 1.66669 9.16707Z" fill="#71717A"/>
</svg>
