<svg width="24" height="24" viewBox="0 0 24 24" fill="none" xmlns="http://www.w3.org/2000/svg">
<path fill-rule="evenodd" clip-rule="evenodd" d="M11.741 3.60083C12.0901 3.9546 12.0863 4.52441 11.7325 4.87352L6.69362 9.8461H10.5934C12.5155 9.84609 14.0388 9.84608 15.2434 9.98937C16.4805 10.1365 17.499 10.4456 18.3479 11.1487C18.6208 11.3747 18.8718 11.6257 19.0978 11.8985C19.8009 12.7475 20.1099 13.766 20.2571 15.003C20.4004 16.2077 20.4004 17.731 20.4004 19.6531V19.7121C20.4004 20.2092 19.9974 20.6121 19.5004 20.6121C19.0034 20.6121 18.6005 20.2092 18.6005 19.7121C18.6005 17.7178 18.599 16.3016 18.4698 15.2156C18.343 14.1498 18.1042 13.5207 17.7116 13.0466C17.5574 12.8604 17.3861 12.6891 17.1999 12.5349C16.7258 12.1423 16.0967 11.9035 15.0308 11.7767C13.9449 11.6475 12.5287 11.646 10.5343 11.646H6.69362L11.1325 16.0265C11.4863 16.3756 11.4901 16.9454 11.141 17.2992C10.7919 17.653 10.2221 17.6567 9.86829 17.3076L3.86828 11.3866C3.69692 11.2175 3.60046 10.9868 3.60046 10.7461C3.60046 10.5053 3.69692 10.2746 3.86828 10.1055L10.4683 3.59239C10.8221 3.24328 11.3919 3.24705 11.741 3.60083Z" fill="#007AFF"/>
</svg>
