<svg width="24" height="24" viewBox="0 0 24 24" fill="none" xmlns="http://www.w3.org/2000/svg">
<path fill-rule="evenodd" clip-rule="evenodd" d="M7.99819 5.12617C6.66345 5.12617 5.54701 6.23857 5.54701 7.65372C5.54701 9.06888 6.66345 10.1813 7.99819 10.1813C9.33293 10.1813 10.4494 9.06888 10.4494 7.65372C10.4494 6.23857 9.33293 5.12617 7.99819 5.12617ZM3.74701 7.65372C3.74701 5.28291 5.63132 3.32617 7.99819 3.32617C10.3651 3.32617 12.2494 5.28291 12.2494 7.65372C12.2494 10.0245 10.3651 11.9813 7.99819 11.9813C5.63132 11.9813 3.74701 10.0245 3.74701 7.65372ZM16.2473 7.98109C15.4815 7.98109 14.8243 8.62296 14.8243 9.46019C14.8243 10.2974 15.4815 10.9393 16.2473 10.9393C17.0131 10.9393 17.6704 10.2974 17.6704 9.46019C17.6704 8.62296 17.0131 7.98109 16.2473 7.98109ZM13.0243 9.46019C13.0243 7.66954 14.4472 6.18109 16.2473 6.18109C18.0475 6.18109 19.4704 7.66954 19.4704 9.46019C19.4704 11.2508 18.0475 12.7393 16.2473 12.7393C14.4472 12.7393 13.0243 11.2508 13.0243 9.46019ZM3.75991 17.436C2.96149 18.173 2.65963 19.037 2.61045 19.54C2.56209 20.0347 2.12184 20.3965 1.62715 20.3481C1.13245 20.2998 0.770628 19.8595 0.818995 19.3648C0.909451 18.4397 1.4035 17.1615 2.53899 16.1133C3.69429 15.0469 5.45809 14.268 7.99819 14.268C10.5383 14.268 12.3021 15.0469 13.4574 16.1133C14.5929 17.1615 15.0869 18.4397 15.1774 19.3648C15.2258 19.8595 14.8639 20.2998 14.3692 20.3481C13.8745 20.3965 13.4343 20.0347 13.3859 19.54C13.3368 19.037 13.0349 18.173 12.2365 17.436C11.4579 16.7172 10.1497 16.068 7.99819 16.068C5.84664 16.068 4.53852 16.7172 3.75991 17.436ZM15.1038 15.168C15.1038 14.6709 15.5067 14.268 16.0038 14.268C18.5439 14.268 20.3077 15.0469 21.463 16.1133C22.5985 17.1615 23.0925 18.4397 23.183 19.3648C23.2314 19.8595 22.8695 20.2998 22.3748 20.3481C21.8801 20.3965 21.4399 20.0347 21.3915 19.54C21.3424 19.037 21.0405 18.173 20.2421 17.436C19.4635 16.7172 18.1553 16.068 16.0038 16.068C15.5067 16.068 15.1038 15.665 15.1038 15.168Z" fill="#007AFF"/>
</svg>
